<svg xmlns="http://www.w3.org/2000/svg" xmlns:xlink="http://www.w3.org/1999/xlink" width="245.433" height="64.142" viewBox="0 0 245.433 64.142">
  <defs>
    <clipPath id="clip-path">
      <rect id="Rectangle_3" data-name="Rectangle 3" width="245.433" height="64.142" fill="#fff"/>
    </clipPath>
  </defs>
  <g id="Group_153" data-name="Group 153" clip-path="url(#clip-path)">
    <path id="Path_1" data-name="Path 1" d="M24.032,47.89l-2.591-1.5L.546,34.331A1.091,1.091,0,0,1,0,33.385V27.2a1.091,1.091,0,0,1,1.637-.945l23.574,13.61L46.5,52.159l5.875,3.392a1.091,1.091,0,0,1,0,1.89L28.466,71.246a1.091,1.091,0,0,1-1.091,0L3.463,57.441a1.091,1.091,0,0,1,0-1.89l12.861-7.425a1.1,1.1,0,0,1,1.091,0l3.318,1.916,11.34,6.547a1.091,1.091,0,0,1,0,1.89l-3.608,2.082a1.091,1.091,0,0,1-1.091,0l-9.959-5.75a1.091,1.091,0,0,0-1.091,0l-1.281.74a1.091,1.091,0,0,0,0,1.89l12.332,7.12a1.1,1.1,0,0,0,1.091,0l10.583-6.11a1.091,1.091,0,0,0,0-1.89v0l-1.385-.8-4.323-2.5-9.309-5.374Z" transform="translate(0 -7.251)" fill="#fff" fill-rule="evenodd"/>
    <path id="Path_2" data-name="Path 2" d="M16.276,13.888,28.5,6.832a1.1,1.1,0,0,1,1.091,0l12.332,7.12a1.091,1.091,0,0,1,0,1.89l-1.281.74a1.091,1.091,0,0,1-1.091,0l-9.96-5.75a1.091,1.091,0,0,0-1.091,0l-3.607,2.082a1.091,1.091,0,0,0,0,1.89l7.748,4.474,6.91,3.99a1.1,1.1,0,0,0,1.091,0L53.5,15.842a1.091,1.091,0,0,0,0-1.89L29.587.147a1.091,1.091,0,0,0-1.091,0L4.584,13.952a1.091,1.091,0,0,0,0,1.89l5.439,3.14,21.7,12.527L55.325,45.137a1.091,1.091,0,0,0,1.637-.945V38.008a1.092,1.092,0,0,0-.545-.945L35.489,24.981l-2.105-1.216-1.922-1.11L25.529,19.23l-5.79-3.343-.313-.181-1.06-.611Z" transform="translate(-1.122 0)" fill="#fff" fill-rule="evenodd"/>
    <path id="Path_3" data-name="Path 3" d="M164.261,55.053c.054.033.115.074.181.124a.28.28,0,0,1,.115.189,2.811,2.811,0,0,0-.115.3,1.662,1.662,0,0,1-.132.3c-.033.055-.077.061-.131.017-.022-.022-.069-.066-.14-.131s-.124-.116-.157-.149a2.556,2.556,0,0,1-.527.511,4.123,4.123,0,0,1-.618.371,5.23,5.23,0,0,1-.675.272q-.354.115-.7.23a1.212,1.212,0,0,1-.132.025.142.142,0,0,1-.09-.008c-.017-.011-.014-.027.008-.05a.781.781,0,0,1,.165-.1q.577-.379,1.153-.717a7.881,7.881,0,0,0,1.07-.749c-.077-.066-.157-.132-.239-.2s-.167-.131-.255-.2a.718.718,0,0,1-.247-.3.752.752,0,0,1-.066-.379.15.15,0,0,1,.008-.041c.006-.016.017-.046.033-.09s.044-.107.082-.189.09-.2.156-.355a.71.71,0,0,1,.173-.23,1.731,1.731,0,0,1,.255-.2.884.884,0,0,1,.28-.115.524.524,0,0,1,.264,0,.619.619,0,0,1,.436.255.87.87,0,0,1,.149.469,1.964,1.964,0,0,1-.074.568,2.176,2.176,0,0,1-.23.552m-1.137-.939a1.421,1.421,0,0,0,.428.462q.28.2.527.346a1.058,1.058,0,0,0,.025-.3,1.475,1.475,0,0,0-.05-.321.564.564,0,0,0-.148-.256.438.438,0,0,0-.272-.124.778.778,0,0,0-.3.025.327.327,0,0,0-.215.173" transform="translate(-44.754 -14.774)" fill="#fff"/>
    <path id="Path_4" data-name="Path 4" d="M95.7,68.216a9.633,9.633,0,0,1-2.012-.2A4.6,4.6,0,0,1,92,67.294,4.318,4.318,0,0,1,90.743,65.9,6.62,6.62,0,0,1,90,63.688a3.357,3.357,0,0,0,.805,1.8,3.576,3.576,0,0,0,1.417.914,6.235,6.235,0,0,0,1.736.335q.922.05,1.744.051Zm5.652-1.425V62.2h1.426v4.595h1.676v1.425H95.044V66.791Zm-5.039,3.1a1.15,1.15,0,0,1,.8.3,1,1,0,0,1,.344.755,1.109,1.109,0,0,1-.294.788,1.01,1.01,0,0,1-.763.344,1.12,1.12,0,0,1-.8-.293,1.009,1.009,0,0,1-.344-.763,1.12,1.12,0,0,1,.293-.8.984.984,0,0,1,.763-.335m1.308,2.5a1.154,1.154,0,0,1,.8.3,1,1,0,0,1,.344.755,1.113,1.113,0,0,1-.293.789,1.011,1.011,0,0,1-.763.343,1.117,1.117,0,0,1-.8-.293,1.009,1.009,0,0,1-.344-.763,1.116,1.116,0,0,1,.294-.8.979.979,0,0,1,.763-.335m1.308-2.5a1.15,1.15,0,0,1,.8.3,1,1,0,0,1,.344.755,1.109,1.109,0,0,1-.294.788,1.01,1.01,0,0,1-.763.344,1.12,1.12,0,0,1-.8-.293,1.009,1.009,0,0,1-.344-.763,1.12,1.12,0,0,1,.293-.8.984.984,0,0,1,.763-.335" transform="translate(-24.996 -17.275)" fill="#fff"/>
    <path id="Path_5" data-name="Path 5" d="M110.01,68.217V66.791h5.132V62.2h1.426v6.02Zm2.046,3.085a1.121,1.121,0,0,1-.294-.8,1.009,1.009,0,0,1,.344-.763,1.117,1.117,0,0,1,.8-.294,1.012,1.012,0,0,1,.763.344,1.11,1.11,0,0,1,.293.789,1,1,0,0,1-.344.755,1.153,1.153,0,0,1-.8.3.982.982,0,0,1-.763-.335m2.7-.084a1.117,1.117,0,0,1-.293-.8,1,1,0,0,1,.344-.763,1.116,1.116,0,0,1,.8-.294,1.012,1.012,0,0,1,.763.344,1.29,1.29,0,0,1,.335.789.876.876,0,0,1-.3.754,1.116,1.116,0,0,1-.386.227,1.359,1.359,0,0,1-.444.075,1.233,1.233,0,0,1-.444-.084.934.934,0,0,1-.369-.251" transform="translate(-30.555 -17.275)" fill="#fff"/>
    <rect id="Rectangle_1" data-name="Rectangle 1" width="1.425" height="9.609" transform="translate(87.387 41.333)" fill="#fff"/>
    <path id="Path_6" data-name="Path 6" d="M137.913,67.212a14.718,14.718,0,0,1-.118,1.946,3.382,3.382,0,0,1-.537,1.483,2.637,2.637,0,0,1-1.224.94,5.937,5.937,0,0,1-2.18.326,4.479,4.479,0,0,0,1.61-.8,2.686,2.686,0,0,0,.763-1.057,3.85,3.85,0,0,0,.243-1.3q.016-.713.017-1.535Zm-1.426-5.433h1.426v5.433h-1.426Zm1.426,4.9h2.347V68.1h-2.347Z" transform="translate(-37.178 -17.159)" fill="#fff"/>
    <path id="Path_7" data-name="Path 7" d="M147.6,66.791h2.767v1.425h-7.646V66.791h3.454V62.2H147.6Zm-2.121,3.1a1.15,1.15,0,0,1,.8.3,1,1,0,0,1,.344.755,1.109,1.109,0,0,1-.293.788,1.012,1.012,0,0,1-.763.344,1.12,1.12,0,0,1-.8-.293,1.011,1.011,0,0,1-.344-.763,1.117,1.117,0,0,1,.294-.8.982.982,0,0,1,.763-.335m1.308,2.5a1.153,1.153,0,0,1,.8.3,1,1,0,0,1,.344.755,1.114,1.114,0,0,1-.293.789,1.011,1.011,0,0,1-.763.343,1.117,1.117,0,0,1-.8-.293,1.009,1.009,0,0,1-.344-.763,1.116,1.116,0,0,1,.294-.8.979.979,0,0,1,.763-.335m1.308-2.5a1.15,1.15,0,0,1,.8.3,1,1,0,0,1,.344.755,1.109,1.109,0,0,1-.293.788,1.012,1.012,0,0,1-.763.344,1.12,1.12,0,0,1-.8-.293,1.012,1.012,0,0,1-.344-.763,1.117,1.117,0,0,1,.294-.8.982.982,0,0,1,.763-.335" transform="translate(-39.642 -17.275)" fill="#fff"/>
    <path id="Path_8" data-name="Path 8" d="M156.766,66.791V62.2h1.426v4.595h1.928V62.2h1.425v4.595h1.928V62.2H164.9v6.021H153.311V66.791Z" transform="translate(-42.582 -17.275)" fill="#fff"/>
    <path id="Path_9" data-name="Path 9" d="M190.965,61.8v6.305H182.8V66.682a6.541,6.541,0,0,1,.294-2.037,4,4,0,0,1,.9-1.534,3.888,3.888,0,0,1,1.526-.973,6.373,6.373,0,0,1,2.18-.335Zm-1.426,4.88V63.227h-1.845a7.44,7.44,0,0,0-1.559.142,2.366,2.366,0,0,0-1.082.52,2.2,2.2,0,0,0-.629,1.048,6.252,6.252,0,0,0-.2,1.744Z" transform="translate(-50.772 -17.165)" fill="#fff"/>
    <rect id="Rectangle_2" data-name="Rectangle 2" width="1.425" height="9.609" transform="translate(141.619 41.333)" fill="#fff"/>
    <path id="Path_10" data-name="Path 10" d="M200.514,66.675a6.39,6.39,0,0,1,.335-2.18,3.9,3.9,0,0,1,.973-1.526,4,4,0,0,1,1.543-.9,6.621,6.621,0,0,1,2.046-.293V63.2a6.3,6.3,0,0,0-1.752.2,2.207,2.207,0,0,0-1.057.628,2.352,2.352,0,0,0-.52,1.082,7.4,7.4,0,0,0-.142,1.559Zm0,0h4.9V68.1h-4.9Zm6.322.537a14.72,14.72,0,0,1-.117,1.946,3.391,3.391,0,0,1-.537,1.483,2.637,2.637,0,0,1-1.224.94,5.94,5.94,0,0,1-2.18.326,4.481,4.481,0,0,0,1.609-.8,2.688,2.688,0,0,0,.763-1.057,3.849,3.849,0,0,0,.243-1.3q.016-.713.017-1.535Zm-1.425-5.433h1.426v5.433h-1.426Zm1.425,4.9h2.348V68.1h-2.348Z" transform="translate(-55.693 -17.159)" fill="#fff"/>
    <path id="Path_11" data-name="Path 11" d="M222.345,65.228h1.442v1.424H212.518V65.228h8.4a6.215,6.215,0,0,0-.2-1.744,2.144,2.144,0,0,0-.628-1.04,2.347,2.347,0,0,0-1.082-.5,7.85,7.85,0,0,0-1.559-.134H214.43V60.382h3.018a4.827,4.827,0,0,1,3.715,1.283,5.061,5.061,0,0,1,1.182,3.564M217.3,58.419a1.116,1.116,0,0,1-.293-.8,1,1,0,0,1,.344-.763,1.119,1.119,0,0,1,.8-.294,1.012,1.012,0,0,1,.763.344,1.107,1.107,0,0,1,.293.789,1,1,0,0,1-.344.755,1.152,1.152,0,0,1-.8.3.982.982,0,0,1-.763-.335" transform="translate(-59.027 -15.711)" fill="#fff"/>
    <path id="Path_12" data-name="Path 12" d="M228.121,66.652V65.228h5.131V60.633h1.426v6.019Zm4.8-8.233a1.116,1.116,0,0,1-.293-.8,1,1,0,0,1,.344-.763,1.119,1.119,0,0,1,.8-.294,1.01,1.01,0,0,1,.763.344,1.107,1.107,0,0,1,.293.789,1,1,0,0,1-.344.755,1.152,1.152,0,0,1-.8.3.982.982,0,0,1-.763-.335" transform="translate(-63.361 -15.711)" fill="#fff"/>
    <path id="Path_13" data-name="Path 13" d="M238.824,66.675a6.39,6.39,0,0,1,.335-2.18,3.9,3.9,0,0,1,.973-1.526,4,4,0,0,1,1.543-.9,6.619,6.619,0,0,1,2.045-.293V63.2a6.308,6.308,0,0,0-1.752.2,2.2,2.2,0,0,0-1.056.628,2.352,2.352,0,0,0-.52,1.082,7.392,7.392,0,0,0-.143,1.559Zm0,0h4.9V68.1h-4.9Zm6.322.537a14.725,14.725,0,0,1-.117,1.946,3.4,3.4,0,0,1-.537,1.483,2.637,2.637,0,0,1-1.224.94,5.944,5.944,0,0,1-2.18.326,4.479,4.479,0,0,0,1.61-.8,2.688,2.688,0,0,0,.763-1.057,3.831,3.831,0,0,0,.243-1.3q.017-.713.017-1.535Zm-1.426-5.433h1.426v5.433H243.72Zm1.426,4.9h2.348V68.1h-2.348Z" transform="translate(-66.333 -17.159)" fill="#fff"/>
    <path id="Path_14" data-name="Path 14" d="M255.708,65.376h2.767V66.8h-7.646V65.376h3.455V60.781h1.425Zm-2.716-6.423a1.116,1.116,0,0,1-.293-.8,1,1,0,0,1,.344-.763,1.119,1.119,0,0,1,.8-.294,1.012,1.012,0,0,1,.763.344,1.107,1.107,0,0,1,.293.789,1,1,0,0,1-.344.754,1.15,1.15,0,0,1-.8.3.981.981,0,0,1-.763-.335m2.616,0a1.116,1.116,0,0,1-.293-.8,1,1,0,0,1,.344-.763,1.119,1.119,0,0,1,.8-.294,1.012,1.012,0,0,1,.763.344,1.107,1.107,0,0,1,.293.789,1,1,0,0,1-.344.754,1.149,1.149,0,0,1-.8.3.982.982,0,0,1-.763-.335" transform="translate(-69.667 -15.859)" fill="#fff"/>
    <path id="Path_15" data-name="Path 15" d="M271.242,65.228h1.442v1.424H261.415V65.228h8.4a6.215,6.215,0,0,0-.2-1.744,2.149,2.149,0,0,0-.628-1.04,2.348,2.348,0,0,0-1.082-.5,7.849,7.849,0,0,0-1.559-.134h-3.018V60.382h3.018a4.828,4.828,0,0,1,3.715,1.283,5.061,5.061,0,0,1,1.182,3.564m-5.048-6.809a1.116,1.116,0,0,1-.293-.8,1,1,0,0,1,.344-.763,1.119,1.119,0,0,1,.8-.294,1.012,1.012,0,0,1,.763.344,1.107,1.107,0,0,1,.293.789,1,1,0,0,1-.344.755,1.152,1.152,0,0,1-.8.3.982.982,0,0,1-.763-.335" transform="translate(-72.608 -15.711)" fill="#fff"/>
    <path id="Path_16" data-name="Path 16" d="M277.018,68.216V66.791h5.131V62.2h1.426v6.02Zm2.758,1.677a1.15,1.15,0,0,1,.8.3,1,1,0,0,1,.344.755,1.108,1.108,0,0,1-.293.788,1.012,1.012,0,0,1-.763.344,1.12,1.12,0,0,1-.8-.293,1.011,1.011,0,0,1-.344-.763,1.117,1.117,0,0,1,.294-.8.982.982,0,0,1,.763-.335m1.308,2.5a1.153,1.153,0,0,1,.8.3,1,1,0,0,1,.344.755,1.11,1.11,0,0,1-.293.789,1.011,1.011,0,0,1-.763.343,1.117,1.117,0,0,1-.8-.293,1.009,1.009,0,0,1-.344-.763,1.116,1.116,0,0,1,.294-.8.979.979,0,0,1,.763-.335m1.308-2.5a1.15,1.15,0,0,1,.8.3,1,1,0,0,1,.344.755,1.109,1.109,0,0,1-.293.788,1.012,1.012,0,0,1-.763.344,1.12,1.12,0,0,1-.8-.293,1.012,1.012,0,0,1-.344-.763,1.117,1.117,0,0,1,.294-.8.982.982,0,0,1,.763-.335" transform="translate(-76.942 -17.275)" fill="#fff"/>
    <path id="Path_17" data-name="Path 17" d="M300.207,67.212a14.725,14.725,0,0,1-.117,1.946,3.4,3.4,0,0,1-.537,1.483,2.641,2.641,0,0,1-1.224.94,5.941,5.941,0,0,1-2.18.326,4.479,4.479,0,0,0,1.61-.8,2.7,2.7,0,0,0,.763-1.057,3.849,3.849,0,0,0,.243-1.3q.017-.713.017-1.535Zm-1.426-5.433h1.426v5.433h-1.426Zm1.426,4.9h2.347V68.1h-2.347Z" transform="translate(-82.255 -17.159)" fill="#fff"/>
    <path id="Path_18" data-name="Path 18" d="M309.9,66.791h2.767v1.426h-7.646V66.791h3.454V62.2H309.9Zm-1.526,4.427a1.12,1.12,0,0,1-.293-.8,1,1,0,0,1,.344-.763,1.116,1.116,0,0,1,.8-.294,1.01,1.01,0,0,1,.763.344,1.294,1.294,0,0,1,.336.789.88.88,0,0,1-.3.754,1.123,1.123,0,0,1-.386.227,1.367,1.367,0,0,1-.445.075,1.233,1.233,0,0,1-.444-.084.94.94,0,0,1-.369-.251" transform="translate(-84.719 -17.275)" fill="#fff"/>
    <path id="Path_19" data-name="Path 19" d="M320.486,66.791h2.767v1.426h-7.646V66.791h3.454V62.2h1.425ZM317.518,71.3a1.12,1.12,0,0,1-.294-.8,1.009,1.009,0,0,1,.344-.763,1.117,1.117,0,0,1,.8-.294,1.012,1.012,0,0,1,.763.344,1.111,1.111,0,0,1,.293.789,1,1,0,0,1-.344.755,1.153,1.153,0,0,1-.8.3.982.982,0,0,1-.763-.335m2.7-.084a1.114,1.114,0,0,1-.293-.8,1,1,0,0,1,.344-.763,1.116,1.116,0,0,1,.8-.294,1.012,1.012,0,0,1,.763.344,1.294,1.294,0,0,1,.335.789.876.876,0,0,1-.3.754,1.115,1.115,0,0,1-.386.227,1.359,1.359,0,0,1-.444.075,1.232,1.232,0,0,1-.444-.084.934.934,0,0,1-.369-.251" transform="translate(-87.66 -17.275)" fill="#fff"/>
    <path id="Path_20" data-name="Path 20" d="M336.021,65.228v1.424h-9.827V65.228h8.4a6.213,6.213,0,0,0-.2-1.744,2.149,2.149,0,0,0-.628-1.04,2.347,2.347,0,0,0-1.082-.5,7.849,7.849,0,0,0-1.559-.134h-3.018V60.382h3.018a4.828,4.828,0,0,1,3.715,1.283,5.061,5.061,0,0,1,1.182,3.564m-5.048-6.809a1.116,1.116,0,0,1-.293-.8,1,1,0,0,1,.344-.763,1.119,1.119,0,0,1,.8-.294,1.012,1.012,0,0,1,.763.344,1.107,1.107,0,0,1,.293.789,1,1,0,0,1-.344.755,1.152,1.152,0,0,1-.8.3.982.982,0,0,1-.763-.335" transform="translate(-90.6 -15.711)" fill="#fff"/>
    <path id="Path_21" data-name="Path 21" d="M105.058,37.77a.477.477,0,0,0-.174-.389,1.331,1.331,0,0,0-.644-.2,11.558,11.558,0,0,0-1.278-.072q-.808-.01-2.056-.01H95.934a11.542,11.542,0,0,1-3.5-.43,5.624,5.624,0,0,1-2.025-1.074,3.083,3.083,0,0,1-.941-1.391,4.8,4.8,0,0,1-.225-1.381,6.219,6.219,0,0,1,.225-1.616,3.282,3.282,0,0,1,.941-1.525,5.478,5.478,0,0,1,2.025-1.135,11.069,11.069,0,0,1,3.5-.45h7.733a9.46,9.46,0,0,1,2.762.338,4.506,4.506,0,0,1,1.749.951,3.914,3.914,0,0,1,1,1.493,9.472,9.472,0,0,1,.5,1.965h-4.89a2.282,2.282,0,0,0-.256-.41,1.05,1.05,0,0,0-.368-.276,2.1,2.1,0,0,0-.624-.164,7.987,7.987,0,0,0-1-.051H98.307q-1.269,0-2.066.021a10.69,10.69,0,0,0-1.268.092,1.231,1.231,0,0,0-.644.235.587.587,0,0,0-.174.45.475.475,0,0,0,.174.389,1.328,1.328,0,0,0,.644.2,11.432,11.432,0,0,0,1.268.072q.8.01,2.066.01h4.971a11.558,11.558,0,0,1,3.488.43,5.627,5.627,0,0,1,2.036,1.074,3.093,3.093,0,0,1,.941,1.391,4.828,4.828,0,0,1,.225,1.381,6.246,6.246,0,0,1-.225,1.616,3.346,3.346,0,0,1-.941,1.535,5.286,5.286,0,0,1-2.036,1.135,11.316,11.316,0,0,1-3.488.44H94.727a9.453,9.453,0,0,1-2.762-.338,4.5,4.5,0,0,1-1.749-.951,3.9,3.9,0,0,1-1-1.493,9.417,9.417,0,0,1-.5-1.965H93.6a2.205,2.205,0,0,0,.256.41,1.035,1.035,0,0,0,.368.276,2.1,2.1,0,0,0,.624.164,7.98,7.98,0,0,0,1,.051h5.053q1.248,0,2.056-.01a8.468,8.468,0,0,0,1.278-.092,1.277,1.277,0,0,0,.644-.246.589.589,0,0,0,.174-.45" transform="translate(-24.64 -7.803)" fill="#fff"/>
    <path id="Path_22" data-name="Path 22" d="M125.318,35.478a4.662,4.662,0,0,0,.174,1.3,2.32,2.32,0,0,0,.644,1.053,3.225,3.225,0,0,0,1.268.706,6.923,6.923,0,0,0,2.066.256h3.949a6.958,6.958,0,0,0,2.045-.256,3.227,3.227,0,0,0,1.289-.706,2.494,2.494,0,0,0,.664-1.053,4.2,4.2,0,0,0,.195-1.3V28.093h4.91V35.5a8.542,8.542,0,0,1-.44,2.752,5.864,5.864,0,0,1-1.4,2.271,6.717,6.717,0,0,1-2.475,1.535,10.552,10.552,0,0,1-3.662.563h-6.219a10.6,10.6,0,0,1-3.693-.563,6.594,6.594,0,0,1-2.445-1.525,5.67,5.67,0,0,1-1.36-2.261,8.949,8.949,0,0,1-.42-2.772V28.093h4.91Z" transform="translate(-33.443 -7.803)" fill="#fff"/>
    <path id="Path_23" data-name="Path 23" d="M154.568,28.064h13.666a11.745,11.745,0,0,1,3.018.338,5.236,5.236,0,0,1,2.056,1.013,4.013,4.013,0,0,1,1.177,1.688,6.675,6.675,0,0,1,.378,2.342,6,6,0,0,1-.368,2.138,4.119,4.119,0,0,1-1.167,1.667,5.6,5.6,0,0,1-2.045,1.085,10.188,10.188,0,0,1-3.007.389h-8.8V42.4h-4.911Zm4.911,6.772h8.469a2.893,2.893,0,0,0,1.554-.307,1.241,1.241,0,0,0,.451-1.1,1.292,1.292,0,0,0-.451-1.146,2.893,2.893,0,0,0-1.554-.307h-8.469Z" transform="translate(-42.931 -7.795)" fill="#fff"/>
    <path id="Path_24" data-name="Path 24" d="M190.126,31.98v1.432h13.768v3.682H190.126v1.432h15.037v3.887H185.216V28.093h19.946V31.98Z" transform="translate(-51.444 -7.803)" fill="#fff"/>
    <path id="Path_25" data-name="Path 25" d="M215.524,28.093h14.709a14.046,14.046,0,0,1,1.892.133,5.367,5.367,0,0,1,1.759.542,3.474,3.474,0,0,1,1.288,1.145,3.433,3.433,0,0,1,.5,1.964,5.466,5.466,0,0,1-.113,1.074,4,4,0,0,1-.378,1.074,3.326,3.326,0,0,1-.7.911,2.8,2.8,0,0,1-1.063.6,5.355,5.355,0,0,1,1.544,1.033,3.275,3.275,0,0,1,.737,1.125,4.026,4.026,0,0,1,.246,1.187q.03.6.071,1.207a6.269,6.269,0,0,0,.194,1.187,2.8,2.8,0,0,0,.644,1.135h-4.869a.667.667,0,0,1-.522-.46,4.217,4.217,0,0,1-.194-.87c-.04-.328-.078-.678-.112-1.054A3.166,3.166,0,0,0,230.9,39a1.893,1.893,0,0,0-.654-.777,2.228,2.228,0,0,0-1.278-.307H220.5v4.5h-4.971Zm4.971,6.342h8.633a2.512,2.512,0,0,0,1.278-.256,1.023,1.023,0,0,0,.42-.951,1.3,1.3,0,0,0-.143-.655.993.993,0,0,0-.389-.378,1.621,1.621,0,0,0-.563-.173,5.34,5.34,0,0,0-.685-.041H220.5Z" transform="translate(-59.862 -7.803)" fill="#fff"/>
    <path id="Path_26" data-name="Path 26" d="M270.442,42.414h-5.585l-1.391-2.148H252.7l-1.371,2.148h-5.585l9.227-14.321h6.24Zm-15.385-5.831h6.055l-3.028-4.705Z" transform="translate(-68.257 -7.803)" fill="#fff"/>
    <path id="Path_27" data-name="Path 27" d="M281.071,28.064h13.666a11.749,11.749,0,0,1,3.018.338,5.236,5.236,0,0,1,2.056,1.013,4.013,4.013,0,0,1,1.177,1.688,6.674,6.674,0,0,1,.379,2.342A5.987,5.987,0,0,1,301,35.583a4.111,4.111,0,0,1-1.166,1.667,5.6,5.6,0,0,1-2.045,1.085,10.188,10.188,0,0,1-3.007.389h-8.8V42.4h-4.91Zm4.91,6.772h8.47A2.893,2.893,0,0,0,296,34.529a1.241,1.241,0,0,0,.451-1.1A1.292,1.292,0,0,0,296,32.278a2.893,2.893,0,0,0-1.554-.307h-8.47Z" transform="translate(-78.067 -7.795)" fill="#fff"/>
    <path id="Path_28" data-name="Path 28" d="M311.719,28.064h13.666a11.749,11.749,0,0,1,3.018.338,5.237,5.237,0,0,1,2.056,1.013,4.013,4.013,0,0,1,1.177,1.688,6.674,6.674,0,0,1,.378,2.342,5.988,5.988,0,0,1-.368,2.138,4.111,4.111,0,0,1-1.166,1.667,5.6,5.6,0,0,1-2.045,1.085,10.188,10.188,0,0,1-3.007.389h-8.8V42.4h-4.91Zm4.91,6.772h8.47a2.893,2.893,0,0,0,1.554-.307,1.241,1.241,0,0,0,.451-1.1,1.292,1.292,0,0,0-.451-1.146,2.893,2.893,0,0,0-1.554-.307h-8.47Z" transform="translate(-86.58 -7.795)" fill="#fff"/>
    <path id="Path_29" data-name="Path 29" d="M94.277,18.1,91.057,15.9V18.1H90V13.95h1.061v1.8l2.9-1.8h1.568L92.542,15.8l3.377,2.3Z" transform="translate(-24.996 -3.874)" fill="#fff"/>
    <path id="Path_30" data-name="Path 30" d="M100.145,18.1V13.941h4.216a3.6,3.6,0,0,1,.921.1,1.457,1.457,0,0,1,.568.277,1.033,1.033,0,0,1,.306.441,1.933,1.933,0,0,1,.107.673,1.7,1.7,0,0,1-.1.6,1.057,1.057,0,0,1-.306.438,1.579,1.579,0,0,1-.573.3,3.094,3.094,0,0,1-.906.115h-3.169V18.1Zm1.061-1.936h3.061a1.173,1.173,0,0,0,.667-.149.665.665,0,0,0,.269-.592.679.679,0,0,0-.269-.605,1.167,1.167,0,0,0-.667-.149h-3.061Z" transform="translate(-27.815 -3.872)" fill="#fff"/>
    <path id="Path_31" data-name="Path 31" d="M116.363,18.146a3.16,3.16,0,0,1-1.115-.17,1.889,1.889,0,0,1-.7-.443,1.662,1.662,0,0,1-.384-.646,2.71,2.71,0,0,1-.125-.831,2.9,2.9,0,0,1,.126-.85,1.808,1.808,0,0,1,.389-.686,1.942,1.942,0,0,1,.7-.478,2.922,2.922,0,0,1,1.108-.183H118.5a3.112,3.112,0,0,1,.923.125,2.262,2.262,0,0,1,.671.328,1.655,1.655,0,0,1,.433.469,1.985,1.985,0,0,1,.127.246h-1.2a1.072,1.072,0,0,0-.448-.313,2.335,2.335,0,0,0-.874-.145H116.74a2.151,2.151,0,0,0-.779.12,1.358,1.358,0,0,0-.521.339,1.173,1.173,0,0,0-.276.5,2.035,2.035,0,0,0-.066.517,1.886,1.886,0,0,0,.068.508,1.059,1.059,0,0,0,.285.48,1.35,1.35,0,0,0,.523.3,2.45,2.45,0,0,0,.767.1H118.2a2.538,2.538,0,0,0,.941-.142,1.008,1.008,0,0,0,.571-.551l.165-.385h-2.388v-.416H120.8v2.131h-.686l-.521-.909-.212.531a.642.642,0,0,1-.069.114.6.6,0,0,1-.152.137,1.142,1.142,0,0,1-.3.136,1.74,1.74,0,0,1-.495.059Z" transform="translate(-31.674 -3.849)" fill="#fff"/>
    <path id="Path_32" data-name="Path 32" d="M127.286,18.146a3.059,3.059,0,0,1-1.112-.176,1.913,1.913,0,0,1-.7-.456,1.7,1.7,0,0,1-.385-.661,2.776,2.776,0,0,1-.125-.838,2.819,2.819,0,0,1,.125-.842,1.771,1.771,0,0,1,.387-.672,1.913,1.913,0,0,1,.7-.465,3.017,3.017,0,0,1,1.111-.178h2.408a2.96,2.96,0,0,1,1.1.181,2,2,0,0,1,.716.472,1.784,1.784,0,0,1,.4.674,2.69,2.69,0,0,1,0,1.659,1.769,1.769,0,0,1-.4.667,1.958,1.958,0,0,1-.714.461,3.046,3.046,0,0,1-1.1.176Zm.377-3.578a2.292,2.292,0,0,0-.773.111,1.344,1.344,0,0,0-.523.324,1.136,1.136,0,0,0-.28.493,1.978,1.978,0,0,0-.066.513,1.914,1.914,0,0,0,.067.51,1.125,1.125,0,0,0,.279.488,1.336,1.336,0,0,0,.523.324,2.286,2.286,0,0,0,.773.111h1.661a2.3,2.3,0,0,0,.763-.11,1.331,1.331,0,0,0,.532-.325,1.188,1.188,0,0,0,.283-.48,1.809,1.809,0,0,0,0-1.036,1.193,1.193,0,0,0-.283-.48,1.369,1.369,0,0,0-.529-.327,2.267,2.267,0,0,0-.766-.114Z" transform="translate(-34.708 -3.849)" fill="#fff"/>
    <path id="Path_33" data-name="Path 33" d="M138.3,18.1l-2.558-4.154h1.185l2.24,3.722,2.248-3.722H142.6L140.038,18.1Z" transform="translate(-37.701 -3.874)" fill="#fff"/>
    <path id="Path_34" data-name="Path 34" d="M146.581,18.1V13.95h6v.724h-4.943V15.7h4.526v.657h-4.526V17.38h4.943V18.1Z" transform="translate(-40.713 -3.874)" fill="#fff"/>
    <path id="Path_35" data-name="Path 35" d="M161.759,18.1a1.208,1.208,0,0,1-.039-.2c-.013-.1-.025-.217-.036-.337a1.328,1.328,0,0,0-.111-.429.894.894,0,0,0-.308-.368.984.984,0,0,0-.579-.151h-3.061V18.1h-1.081V13.949H161.1a4.429,4.429,0,0,1,.584.041,1.519,1.519,0,0,1,.489.15.78.78,0,0,1,.439.776,1.547,1.547,0,0,1-.032.3,1.074,1.074,0,0,1-.1.28.82.82,0,0,1-.172.225.654.654,0,0,1-.246.138l-.659.212.625.3a1.5,1.5,0,0,1,.428.282.808.808,0,0,1,.181.273,1.031,1.031,0,0,1,.064.309c.007.134.014.268.024.4a2.4,2.4,0,0,0,.072.441l.008.027Zm-4.134-2.07h3.114a1.068,1.068,0,0,0,.565-.125.594.594,0,0,0,.27-.548.7.7,0,0,0-.084-.355.6.6,0,0,0-.235-.228.8.8,0,0,0-.281-.088,1.99,1.99,0,0,0-.261-.016h-3.088Z" transform="translate(-43.48 -3.874)" fill="#fff"/>
    <path id="Path_36" data-name="Path 36" d="M172.306,18.1l-4.338-3.3v3.3h-1.061V13.94h1.561l4.156,3.167v-3.16h1.061V18.1Z" transform="translate(-46.358 -3.872)" fill="#fff"/>
    <path id="Path_37" data-name="Path 37" d="M185.4,18.1V14.253l-2.44,3.851h-1.049l-2.491-3.821V18.1H178.36V13.95h1.9l2.164,3.322,2.106-3.322h1.932V18.1Z" transform="translate(-49.539 -3.874)" fill="#fff"/>
    <path id="Path_38" data-name="Path 38" d="M191.647,18.1V13.95h6v.724h-4.943V15.7h4.526v.657h-4.526V17.38h4.943V18.1Z" transform="translate(-53.23 -3.874)" fill="#fff"/>
    <path id="Path_39" data-name="Path 39" d="M207.009,18.1l-4.338-3.3v3.3H201.61V13.94h1.561l4.156,3.167v-3.16h1.061V18.1Z" transform="translate(-55.997 -3.872)" fill="#fff"/>
    <path id="Path_40" data-name="Path 40" d="M215.074,18.1v-3.43H212.5V13.95H218.7v.724h-2.563V18.1Z" transform="translate(-59.023 -3.874)" fill="#fff"/>
  </g>
</svg>
