<?xml version="1.0" standalone="no"?>
<!DOCTYPE svg PUBLIC "-//W3C//DTD SVG 20010904//EN"
 "http://www.w3.org/TR/2001/REC-SVG-20010904/DTD/svg10.dtd">
<svg version="1.0" xmlns="http://www.w3.org/2000/svg"
 width="274.000000pt" height="274.000000pt" viewBox="0 0 274.000000 274.000000"
 preserveAspectRatio="xMidYMid meet">
<metadata>
Created by potrace 1.14, written by Peter Selinger 2001-2017
</metadata>
<g transform="translate(0.000000,274.000000) scale(0.100000,-0.100000)"
fill="#000000" stroke="none">
<path d="M1325 2682 c-16 -9 -93 -54 -170 -98 -279 -162 -641 -371 -700 -404
-122 -68 -147 -98 -107 -133 15 -13 429 -255 582 -339 30 -17 67 -39 82 -49
14 -11 28 -19 31 -19 3 0 38 -19 79 -43 81 -48 377 -219 448 -259 63 -35 422
-244 462 -268 18 -11 44 -25 58 -32 14 -7 63 -35 110 -63 160 -96 269 -156
290 -160 39 -8 49 28 48 182 0 152 1 149 -58 182 -14 8 -122 71 -240 139 -118
68 -233 134 -255 147 -46 26 -909 524 -1033 596 -46 27 -88 49 -93 49 -5 0 -9
3 -9 8 0 7 14 16 105 67 22 13 123 71 224 129 102 58 189 106 195 106 20 0
539 -305 550 -322 15 -24 -1 -47 -51 -75 l-40 -23 -149 86 c-181 104 -250 143
-287 162 -26 13 -32 11 -120 -40 -73 -42 -93 -58 -95 -78 -1 -14 1 -30 5 -35
11 -15 623 -367 642 -370 18 -2 8 -8 321 173 129 74 244 143 254 153 37 35 11
59 -186 172 -101 57 -271 155 -378 217 -107 62 -211 122 -230 133 -19 11 -76
44 -127 73 -50 30 -99 54 -110 53 -10 0 -31 -8 -48 -17z"/>
<path d="M225 1904 c-12 -12 -15 -45 -15 -163 0 -128 2 -150 18 -163 9 -8 107
-67 217 -130 110 -64 261 -150 335 -193 74 -43 149 -86 165 -95 17 -9 113 -65
214 -123 101 -59 186 -107 188 -107 3 0 17 -8 31 -18 15 -11 52 -33 82 -49
213 -118 386 -224 394 -242 6 -14 5 -25 -3 -35 -7 -8 -85 -56 -173 -107 -88
-50 -190 -109 -227 -130 -36 -22 -71 -39 -77 -39 -7 0 -134 70 -283 156 -250
144 -271 159 -271 184 0 22 9 32 48 53 l48 26 44 -25 c25 -14 63 -36 85 -49
22 -12 104 -60 182 -105 l143 -82 42 21 c106 53 158 91 158 116 0 14 -10 31
-22 40 -66 47 -616 357 -634 357 -20 0 -532 -288 -566 -319 -23 -20 -23 -46 0
-66 9 -8 121 -75 247 -147 204 -118 503 -290 696 -402 36 -21 74 -38 83 -38 9
0 161 84 339 186 177 103 336 195 353 204 296 169 337 195 346 216 16 35 3 46
-147 129 -11 6 -240 139 -510 295 -269 156 -510 294 -535 308 -25 14 -97 55
-160 92 -63 37 -223 129 -355 205 -132 76 -283 162 -335 192 -107 62 -124 68
-145 47z"/>
</g>
</svg>
